<svg id="Layer_1" data-name="Layer 1" xmlns="http://www.w3.org/2000/svg" xmlns:xlink="http://www.w3.org/1999/xlink" viewBox="0 0 450 300"><defs><style>.cls-1{fill:url(#linear-gradient);}.cls-2{fill:url(#linear-gradient-2);}</style><linearGradient id="linear-gradient" x1="440.54545" y1="200.45455" x2="440.54545" y2="500.45455" gradientUnits="userSpaceOnUse"><stop offset="0.00571" stop-color="#fbfbfb"/><stop offset="1" stop-color="#d9d9d9"/></linearGradient><linearGradient id="linear-gradient-2" x1="440.54545" y1="295.70455" x2="440.54545" y2="457.20455" gradientUnits="userSpaceOnUse"><stop offset="0.00571" stop-color="#52c756"/><stop offset="1" stop-color="#4caf50"/></linearGradient></defs><path class="cls-1" d="M578.358,313.517a140.57871,140.57871,0,0,0-262.5-37.5,112.55252,112.55252,0,0,0,12.1875,224.43751h243.75a93.75,93.75,0,0,0,93.75-93.75C665.54545,357.20454,627.108,317.07955,578.358,313.517Z" transform="translate(-215.54545 -200.45455)"/><path class="cls-2" d="M483.04545,338.20455c-76.5,17-94.35,69.445-112.03,113.39l16.065,5.61,8.075-19.55c4.08,1.445,8.33,2.55,11.39,2.55,93.5,0,119-144.5,119-144.5-8.5,17-68,19.125-110.5,27.625s-59.5,44.625-59.5,61.625,14.875,31.875,14.875,31.875C398.04545,338.20455,483.04545,338.20455,483.04545,338.20455Z" transform="translate(-215.54545 -200.45455)"/></svg>