<?xml version="1.0" standalone="no"?>
<!DOCTYPE svg PUBLIC "-//W3C//DTD SVG 20010904//EN"
 "http://www.w3.org/TR/2001/REC-SVG-20010904/DTD/svg10.dtd">
<svg version="1.0" xmlns="http://www.w3.org/2000/svg"
 width="900.000000pt" height="900.000000pt" viewBox="0 0 900.000000 900.000000"
 preserveAspectRatio="xMidYMid meet">
<metadata>
Created by potrace 1.14, written by Peter Selinger 2001-2017
</metadata>
<g transform="translate(0.000000,900.000000) scale(0.100000,-0.100000)"
fill="#000000" stroke="none">
<path d="M4298 7495 c-2 -2 -33 -6 -68 -9 -36 -3 -65 -5 -65 -6 0 -1 -16 -3
-35 -5 -19 -1 -64 -8 -100 -15 -36 -7 -74 -14 -85 -15 -30 -5 -62 -12 -150
-35 -44 -12 -88 -23 -98 -25 -9 -2 -22 -7 -27 -10 -5 -3 -18 -8 -27 -10 -27
-5 -139 -46 -208 -75 -16 -8 -34 -14 -40 -16 -23 -5 -185 -85 -190 -94 -3 -4
-19 -11 -35 -15 -17 -4 -30 -10 -30 -13 0 -4 -23 -18 -50 -31 -28 -14 -50 -29
-50 -33 0 -4 -5 -8 -10 -8 -10 0 -78 -43 -160 -101 -69 -48 -236 -184 -284
-231 -27 -26 -52 -48 -57 -48 -4 0 -9 -4 -11 -9 -1 -5 -30 -38 -63 -74 -175
-187 -307 -368 -425 -584 -13 -24 -26 -43 -29 -44 -3 0 -13 -2 -21 -3 -8 -2
-42 -7 -75 -11 -33 -5 -62 -9 -65 -10 -38 -10 -107 -25 -145 -32 -16 -3 -38
-9 -47 -14 -10 -5 -18 -7 -18 -3 0 3 -7 1 -15 -6 -8 -7 -15 -10 -15 -7 0 3
-16 -1 -35 -9 -19 -8 -38 -15 -42 -15 -44 -7 -363 -148 -383 -169 -3 -3 -37
-25 -77 -48 -39 -23 -78 -48 -85 -55 -7 -8 -24 -19 -36 -26 -26 -14 -46 -29
-102 -78 -21 -18 -43 -33 -49 -33 -6 0 -11 -7 -11 -15 0 -8 -5 -15 -11 -15
-18 0 -222 -212 -289 -300 -19 -25 -37 -47 -40 -50 -6 -6 -67 -98 -112 -170
-45 -71 -138 -258 -167 -335 -13 -33 -27 -69 -32 -80 -8 -20 -47 -146 -54
-175 -2 -8 -11 -46 -20 -85 -9 -38 -18 -83 -20 -100 -3 -16 -6 -43 -9 -60 -16
-101 -21 -170 -20 -335 0 -102 3 -212 8 -245 13 -111 25 -186 30 -194 2 -3 7
-22 10 -41 3 -19 10 -50 15 -67 5 -18 8 -33 5 -33 -3 0 0 -8 5 -18 6 -11 12
-30 15 -43 4 -22 58 -176 73 -209 3 -8 7 -17 7 -20 4 -18 100 -207 117 -231
11 -16 18 -29 15 -29 -4 0 10 -22 29 -50 19 -27 35 -52 35 -55 0 -3 4 -11 10
-18 5 -7 37 -49 71 -95 269 -364 680 -658 1109 -792 103 -32 134 -41 150 -43
8 -2 21 -6 28 -10 6 -5 12 -6 12 -3 0 2 15 0 32 -5 18 -5 54 -11 79 -14 25 -3
56 -8 70 -11 13 -2 53 -8 89 -12 86 -9 5261 -9 5325 0 28 4 68 10 89 13 21 3
57 10 80 16 23 5 50 11 61 13 11 2 20 4 20 5 0 2 10 4 22 7 91 17 425 160 489
210 11 8 48 33 84 57 36 23 70 46 76 52 6 5 33 28 60 50 86 72 210 199 280
290 91 118 234 362 234 400 0 8 5 15 10 15 6 0 10 8 10 18 0 10 5 23 12 30 7
7 9 12 5 12 -4 0 -1 12 6 27 15 29 62 186 71 238 3 17 8 41 12 55 21 92 31
235 29 395 -1 99 -5 191 -8 205 -4 14 -9 41 -12 60 -3 19 -8 44 -10 55 -2 11
-7 35 -10 53 -2 18 -9 42 -15 52 -6 11 -9 20 -6 20 6 0 -32 117 -69 210 -59
148 -152 309 -268 465 -45 60 -264 272 -337 325 -41 30 -76 58 -78 62 -2 5 -8
8 -13 8 -5 0 -35 17 -66 37 -149 95 -379 189 -563 229 -19 4 -37 8 -40 9 -24
6 -154 25 -188 28 -50 5 -59 12 -66 49 -10 57 -56 226 -84 309 -40 115 -123
312 -136 321 -6 4 -8 8 -4 8 19 0 -218 398 -244 408 -4 2 -8 8 -8 14 0 5 -28
44 -62 86 -35 42 -70 86 -78 96 -32 41 -258 264 -305 301 -27 22 -54 45 -60
51 -5 5 -37 30 -70 55 -33 24 -61 47 -63 52 -2 4 -9 7 -16 7 -7 0 -21 9 -31
20 -10 11 -23 20 -30 20 -6 0 -20 8 -31 18 -19 16 -31 23 -86 55 -13 6 -25 15
-28 18 -11 13 -321 161 -405 193 -49 19 -139 49 -200 66 -60 18 -117 35 -125
38 -8 3 -24 6 -35 8 -11 1 -67 11 -125 22 -109 21 -163 30 -240 39 -54 6 -477
13 -482 8z"/>
</g>
</svg>
